<?xml version="1.0" encoding="UTF-8"?><svg id="Layer_2" xmlns="http://www.w3.org/2000/svg" viewBox="0 0 766.05 219.65"><defs><style>.cls-1,.cls-2{fill:#009fe3;}.cls-2{font-family:NeueMontreal-Medium, 'Neue Montreal';font-size:68.22px;}.cls-3{fill:#014b7a;}</style></defs><g id="Layer_1-2"><g><g><path class="cls-1" d="M675.95,44.8h-2.59l28.21,45.48-30.81,47.43h2.54l30.83-47.48-28.17-45.43Zm45.54,68.58l-1.29,2.12,.05,.08,13.54,22.13h2.59l-14.89-24.33Zm10.99-68.58l-12.23,20.21-.05,.09,1.29,2.15,13.62-22.46h-2.62Z"/><path class="cls-3" d="M264.62,118.61v-19.11h40.55v-19.1h-40.55v-16.51h47.04v-19.1h-70.42v92.91h71.21v-19.1h-47.82Z"/><path class="cls-3" d="M330.64,81.19v17.81h35.35v-17.81h-35.35Z"/><path class="cls-3" d="M407.59,118.61V44.8h-23.4v92.91h64.72v-19.1h-41.32Z"/><polygon class="cls-3" points="766.05 137.71 740.07 137.71 726.53 115.58 721.62 107.56 721.37 107.56 718.37 112.5 703.04 137.71 677.03 137.71 707.84 90.28 679.64 44.8 704.34 44.8 718.37 68.14 721.37 73.13 721.62 73.13 726.53 65.01 738.77 44.8 763.47 44.8 735.27 90.01 765.89 137.46 766.05 137.71"/><text class="cls-2" transform="translate(479.41 201.71)"><tspan x="0" y="0">Academy</tspan></text><g><path class="cls-1" d="M658.13,90.74c.58-5.6,.17-11.28-1.3-16.64-1.49-5.36-4.17-10.35-7.82-14.45-7.26-8.36-18.2-12.6-29.06-13.55-5.46-.53-10.94-.12-16.18,1.28-2.64,.71-5.16,1.63-7.68,2.78-2.42,1.12-4.85,2.48-7.13,3.96-9.21,5.98-16.86,14.2-23.87,22.86-3.52,4.34-7.02,8.75-10.41,13.21-3.4,4.46-6.72,9.03-10.33,13.44-3.63,4.39-7.48,8.66-11.92,12.38-4.41,3.72-9.51,6.87-15.16,8.53-.98,.3-2.04,.55-3.07,.75v.02s-.03,0-.04,0c-.39,.08-.79,.17-1.16,.23-1.47,.25-2.94,.39-4.39,.45-2.88,.14-5.77,.07-8.65-.3-2.45-.31-4.87-.84-7.23-1.59-4.42-1.86-7.65-3.38-8.98-4.27-4.81-3.26-8.63-7.78-11.26-12.84-2.64-5.07-4.1-10.65-4.68-16.24,.48,2.77,1.19,5.5,2.12,8.14,.89,2.66,2.05,5.21,3.45,7.61,2.18,3.74,5.05,7.07,8.43,9.7-2.6-3.19-4.98-7.08-6.75-11.61-2.76-6.96-3.89-15.43-2.49-24.01,.7-4.28,2.01-8.4,3.97-12.05,1.91-3.66,4.63-6.84,7.56-9.18,5.98-4.79,12.61-6.87,18.13-7.63,5.58-.75,10.1-.15,13.12,.43,3.03,.62,4.63,1.2,4.63,1.18,0,.02-1.67-.35-4.71-.63-3.03-.25-7.49-.38-12.74,.76-5.19,1.13-11.32,3.58-16.5,8.14-5.29,4.49-8.73,11.61-9.99,19.55-1.29,7.96-.47,15.81,1.81,22.43,2.24,6.66,5.81,12.08,9.53,15.92,.13,.14,.27,.26,.4,.39,3.89,1.85,8.15,2.94,12.45,3.32,1.87,.16,3.77,.18,5.67,.13-3.49-1.21-6.83-2.86-9.8-5.03-5.31-3.85-9.4-9.2-11.89-15.13-2.5-5.93-3.53-12.41-3.08-18.75,.23-3.17,.84-6.31,1.93-9.28,1.09-2.96,2.69-5.78,4.94-7.98-2.13,2.32-3.56,5.18-4.48,8.14-.93,2.97-1.37,6.08-1.44,9.18-.13,6.19,1.21,12.4,3.87,17.91,2.65,5.52,6.73,10.28,11.77,13.56,5.06,3.29,10.91,5.07,16.97,5.59l1.67,.17c.59-.16-.6,.2,0,0,5.13-1.67,9.75-4.66,13.89-8.24,4.14-3.58,7.81-7.77,11.28-12.11,2.76-3.48,5.43-7.08,8.11-10.68-5.09-6.83-10.22-13.62-16.49-19.26-3.35-3-7.08-5.6-11.22-7.39-4.13-1.82-8.66-2.77-13.23-2.92,4.57-.17,9.21,.47,13.58,2.03,4.37,1.55,8.43,3.96,12.09,6.81,6.61,5.17,12.15,11.45,17.54,17.7,2.82-3.72,5.68-7.39,8.59-11.04-6.82-8.66-14.29-16.83-23.38-22.73-4.55-2.98-9.6-5.32-14.83-6.65-2.64-.69-5.29-1.08-8.04-1.28-2.67-.21-5.43-.09-8.16,.18-10.87,1.07-21.69,5.47-28.98,13.82-3.66,4.1-6.37,9.06-7.91,14.41-1.52,5.29-1.97,10.9-1.41,16.45,0-.02,0-.05,0-.07-.58,5.6-.13,11.28,1.4,16.63,1.55,5.35,4.26,10.31,7.92,14.41,3.62,4.12,8.15,7.39,13.15,9.65,5,2.27,10.35,3.64,15.83,4.18,5.48,.6,10.93,.26,16.19-1.09,2.64-.69,5.17-1.58,7.7-2.72,2.42-1.11,4.85-2.45,7.13-3.94,9.21-5.97,16.75-14.27,23.64-23.04,0,0,16.55-21.25,21.1-25.05,.26-.28,.43-.48,.46-.5l-.13,.24c1.11-.92,2.22-1.83,3.38-2.69,6.03-4.45,12.71-8.06,19.85-10.32,7.09-2.2,14.95-3.13,22.14-.69,3.56,1.2,6.8,3.33,9.22,6.17,2.44,2.82,4.08,6.23,5.08,9.76-1.15-3.49-2.94-6.79-5.44-9.44-2.48-2.67-5.7-4.58-9.16-5.58-6.99-2.04-14.48-.83-21.24,1.59-6.8,2.48-13.09,6.24-18.71,10.78-3.6,2.9-10.9,11.66-10.9,11.66-.03,.04-.06,.08-.09,.12,.44,.57,.87,1.14,1.31,1.71,2.23,2.92,4.48,5.81,6.79,8.63,5.08,6.17,10.65,12.14,17.24,16.34,3.8,1.74,7.82,2.76,11.93,2.71,4.29-.03,8.57-1.34,12.32-3.63,3.76-2.28,7-5.48,9.6-9.13,2.58-3.66,4.62-7.79,5.62-12.22-.69,4.5-2.45,8.82-4.83,12.75-2.4,3.92-5.51,7.48-9.34,10.2-3.37,2.41-7.37,4.09-11.57,4.71,.73,.11,1.47,.2,2.2,.27,2.73,.25,5.49,.27,8.21,.06,5.46-.41,10.81-1.86,15.49-4.74,4.68-2.82,8.55-6.96,11.29-11.78,2.33-4.04,3.77-8.4,4.9-13.02,.19-.77,.37-1.55,.55-2.34-.91,10.85-5.97,22.36-15.69,28.79-4.82,3.23-10.59,5.03-16.32,5.65-2.89,.31-5.78,.35-8.66,.17-1.46-.09-2.9-.26-4.36-.53-.73-.14-1.47-.3-2.13-.46-.71-.19-1.45-.38-2.14-.61-2.14-.66-4.2-1.54-6.17-2.56-.98-.3-2.67-1.53-2.67-1.53-2.2-1.36-4.3-2.89-6.26-4.53-4.44-3.7-8.35-7.92-12.02-12.26-2.65-3.16-5.15-6.39-7.65-9.61l-8.62,11.17c6.59,8.1,13.7,15.77,22.18,21.58,4.47,3.08,9.29,5.57,14.45,7.17,5.14,1.59,10.52,2.27,15.94,1.95,10.77-.59,21.75-4.21,29.49-11.97,3.88-3.81,6.86-8.53,8.69-13.73,1.82-5.19,2.56-10.79,2.32-16.35,1.4,11.04-1.82,22.95-9.66,31.39-3.89,4.22-8.74,7.46-14.02,9.7-5.27,2.26-10.93,3.46-16.62,3.95-5.69,.51-11.58-.08-17.1-1.72-5.53-1.6-10.76-4.21-15.51-7.38-8.77-5.88-15.97-13.56-22.56-21.51-6.83,8.49-14.44,16.74-23.9,22.73-2.46,1.54-4.99,2.91-7.71,4.09-2.62,1.13-5.43,2.08-8.26,2.76-5.66,1.4-11.65,1.59-17.34,.8-11.41-1.37-22.74-6.46-30.05-15.57-7.29-9-9.93-21.08-7.92-32.11-2.02-11.03,.63-23.13,7.92-32.11,3.63-4.49,8.31-8.12,13.5-10.7,5.15-2.59,10.88-4.15,16.56-4.88,2.87-.36,5.75-.57,8.71-.42,2.87,.13,5.82,.53,8.63,1.22,5.72,1.37,11.05,3.76,15.97,6.86,4.92,3.08,9.33,6.83,13.4,10.88,3.76,3.72,7.21,7.76,10.5,11.85,6.95-8.38,14.61-16.51,24.05-22.49,2.46-1.54,4.98-2.91,7.69-4.11,2.61-1.14,5.41-2.11,8.23-2.82,5.66-1.45,11.6-1.72,17.33-1.01,5.71,.67,11.41,2.15,16.61,4.69,5.21,2.51,9.93,6.12,13.56,10.62,7.34,9.06,9.75,21.24,7.7,32.29Z"/><path class="cls-1" d="M644.7,70.78c-2.63-4.74-6.6-9.23-11.97-11.96-5.32-2.79-11.84-3.67-18.39-2.8-6.57,.84-13.16,3.32-19.38,6.78-12.48,7.01-22.34,16.96-30.09,26.73-1.94,2.44-3.71,4.96-5.58,7.35-1.85,2.39-3.69,4.67-5.52,6.83-3.66,4.33-7.28,8.18-10.76,11.52-6.95,6.69-13.48,11.17-18.43,13.36-4.95,2.24-8.03,2.24-8,2.29-.03-.05,3.04-.28,7.76-2.78,4.73-2.45,10.87-7.21,17.42-14.11,3.28-3.44,6.68-7.39,10.14-11.8,1.73-2.2,3.47-4.51,5.22-6.93,1.75-2.39,3.46-4.97,5.39-7.54,7.65-10.19,17.63-20.64,30.72-28,6.53-3.63,13.55-6.23,20.68-7.04,7.09-.85,14.34,.26,20.19,3.52,5.91,3.2,10.09,8.29,12.7,13.45,2.58,5.22,3.99,10.41,4.57,15.29,.55,4.88,.02,9.36-1.07,13.07-1.08,3.72-2.64,6.68-4.07,8.97-2.93,4.54-5.15,6.56-5.1,6.59-.06-.03,2.02-2.22,4.63-6.87,1.26-2.33,2.62-5.32,3.47-8.97,.86-3.64,1.14-7.94,.4-12.56-.75-4.59-2.35-9.61-4.95-14.4Z"/></g><g><path class="cls-3" d="M13.38,47.51c26.96,25.4,57.59,59.31,85.66,103.13,13.06,20.39,23.78,40.13,32.6,58.56,6.21-22.69,13.97-47.19,23.72-73,10.82-28.62,22.43-54.44,33.94-77.38-20.66,19.62-40.91,25.38-50.73,27.37-28.09,5.71-51.29-2.99-74.46-11.68-22.66-8.49-39.72-19.16-50.73-27.01Z"/><path class="cls-1" d="M67.77,7.72c-9.64,11.52-1.28,31.93-.73,33.21,3.93,9.25,10.32,14.85,13.87,17.52,2.15,1.53,17.02,11.77,33.13,6.17,2.48-.86,7.48-2.67,11.21-7.27,9.15-11.28,5.12-32.58-6.39-44.53C105.03-1.53,78.15-4.69,67.77,7.72Z"/><path class="cls-1" d="M0,104.32c9.57,2.21,20.75,4.1,33.3,5,9.1,.65,17.52,.68,25.1,.35,1.79,1.98,4.36,4.86,7.39,8.4,16.81,19.65,28.94,37.58,36.9,50.36,7.54,12.12,16.06,27.21,24.33,45.14-16.36-18.61-36.34-39.02-60.34-59.61C43.19,133.83,20.49,117.49,0,104.32Z"/></g></g><polygon class="cls-1" points="765.61 118.67 747.46 90.56 764.17 63.78 765.61 118.67"/></g></g></svg>